<mxfile host="app.diagrams.net" modified="2023-07-21T01:58:08.373Z" agent="Mozilla/5.0 (Macintosh; Intel Mac OS X 10_15_7) AppleWebKit/537.36 (KHTML, like Gecko) Chrome/114.0.0.0 Safari/537.36" version="21.6.5" etag="lNHTBRViljZkG65ikqCc" type="github">
  <diagram name="ページ1" id="yVRvfvMmdsN5VmzcEPOA">
    <mxGraphModel>
      <root>
        <mxCell id="0" />
        <mxCell id="1" parent="0" />
      </root>
    </mxGraphModel>
  </diagram>
</mxfile>
